<?xml version="1.0" encoding="UTF-8" standalone="no"?>
<svg xmlns:dc="http://purl.org/dc/elements/1.1/" xmlns:cc="http://creativecommons.org/ns#" xmlns:rdf="http://www.w3.org/1999/02/22-rdf-syntax-ns#" xmlns:svg="http://www.w3.org/2000/svg" xmlns="http://www.w3.org/2000/svg" viewBox="0 0 755.90546 1511.8112" height="1511.8112" width="755.90546" xml:space="preserve" id="svg2" version="1.1">
  <metadata id="metadata8">
    <rdf:RDF>
      <cc:Work rdf:about="">
        <dc:format>image/svg+xml</dc:format>
        <dc:type rdf:resource="http://purl.org/dc/dcmitype/StillImage" />
      </cc:Work>
    </rdf:RDF>
  </metadata>
  <defs id="defs6" />
  <g transform="matrix(1.3333333,0,0,-1.3333333,0,1511.8111)" id="g10">
    <path id="path14" style="fill:#1A1917;fill-opacity:1;fill-rule:evenodd;stroke:none" d="m 125.0807,948.0929 v -7.333 l -0.176,-0.2931 c -0.9386,-1.1341 -2.0339,-2.0092 -3.2851,-2.6251 -1.2515,-0.616 -2.5716,-0.9241 -3.96,-0.9241 -1.3102,0 -2.5517,0.269 -3.725,0.8067 -1.1732,0.5377 -2.19,1.2711 -3.0503,2.1997 -0.8606,0.9289 -1.5449,2.0191 -2.0535,3.2706 -0.5082,1.2515 -0.7625,2.5812 -0.7625,3.9889 0,1.3298 0.22,2.5861 0.6599,3.7693 0.44,1.1829 1.0463,2.2291 1.8187,3.1385 0.7725,0.909 1.6815,1.6523 2.7278,2.2291 1.046,0.5769 2.1657,0.9338 3.3585,1.0707 0.1565,0.0391 0.3226,0.0587 0.4986,0.0587 0.176,0 0.3521,0 0.5278,0 0.1761,0 0.3473,0 0.5134,0 0.1664,0 0.3373,-0.0196 0.5133,-0.0587 1.1342,-0.1174 2.2048,-0.4451 3.212,-0.9828 1.0068,-0.5377 1.9114,-1.2563 2.713,-2.1557 l 0.1466,-0.1761 -1.0559,-0.9093 c -0.8212,1.2124 -1.7159,2.1509 -2.6839,2.8159 -0.9677,0.6647 -2.0874,0.9972 -3.3585,0.9972 -1.2515,0 -2.3805,-0.259 -3.3877,-0.7772 -1.0071,-0.5182 -1.8626,-1.2172 -2.5665,-2.0971 -0.7038,-0.8801 -1.2466,-1.9165 -1.6279,-3.1093 -0.3812,-1.1928 -0.572,-2.4639 -0.572,-3.8132 0,-1.349 0.1908,-2.6152 0.572,-3.7984 0.3813,-1.1829 0.9241,-2.2192 1.6279,-3.109 0.7039,-0.8898 1.5594,-1.5889 2.5665,-2.0971 1.0072,-0.5085 2.1362,-0.7628 3.3877,-0.7628 1.1146,0 2.1853,0.2103 3.212,0.6307 1.0267,0.4204 1.9505,1.0216 2.7717,1.804 v 7.7728 h -6.2181 v 0.4692 z m 11.2499,9.2982 v -20.4735 h -1.4375 v 20.4735 z m 24.5954,0 v -13.2579 c 0,-0.9973 -0.1905,-1.931 -0.5721,-2.8012 -0.3812,-0.8703 -0.8994,-1.6328 -1.5545,-2.2879 -0.6551,-0.6551 -1.4224,-1.1732 -2.3026,-1.5545 -0.8799,-0.3813 -1.8184,-0.572 -2.8156,-0.572 -0.9973,0 -1.9358,0.1907 -2.816,0.572 -0.8798,0.3813 -1.6424,0.8994 -2.2878,1.5545 -0.6452,0.6551 -1.1585,1.4176 -1.5398,2.2879 -0.3813,0.8702 -0.572,1.8039 -0.572,2.8012 v 13.2579 h 1.4371 v -13.2579 c 0,-0.919 0.1273,-1.7893 0.3813,-2.6105 0.2543,-0.8214 0.6259,-1.5349 1.1149,-2.1413 0.4887,-0.606 1.095,-1.0853 1.8184,-1.4371 0.7234,-0.3521 1.5449,-0.5281 2.4639,-0.5281 0.9385,0 1.7648,0.176 2.4786,0.5281 0.7135,0.3518 1.315,0.8311 1.8037,1.4371 0.4889,0.6064 0.8603,1.3199 1.1145,2.1413 0.2543,0.8212 0.3813,1.6915 0.3813,2.6105 v 13.2579 z m 22.0439,-19.9749 v -0.4986 h -11.9382 v 20.4735 h 1.4375 v -19.9749 z m 9.8713,19.9749 v -20.4735 h -1.4374 v 20.4735 z m 25.8568,-20.4735 h -0.5281 l -2.8451,7.4503 h -9.4153 l -2.9038,-7.4503 h -1.4374 l 7.9489,20.4735 h 1.3198 z m -3.5492,7.9489 -4.5171,11.7031 -4.5464,-11.7031 z m 29.3904,3.2264 c 2.5617,-0.1956 4.5318,-0.7773 5.9102,-1.7453 1.3788,-0.9678 2.0679,-2.2536 2.0679,-3.8571 0,-1.7402 -0.6695,-3.0943 -2.0092,-4.0623 -1.3393,-0.9681 -3.1921,-1.4715 -5.5581,-1.5106 h -0.2056 c -1.525,0.0195 -2.9086,0.3277 -4.1502,0.9241 -1.2418,0.5964 -2.2342,1.4519 -2.9772,2.5665 l -0.1465,0.176 0.9972,0.7038 c 0.6843,-1.2123 1.5449,-2.1608 2.5812,-2.8451 1.0364,-0.6846 2.2879,-1.0267 3.7542,-1.0267 1.1342,0 2.0974,0.1173 2.8894,0.3521 0.792,0.2347 1.4371,0.5669 1.9358,0.9972 0.4986,0.4303 0.8654,0.9632 1.0998,1.5984 0.2347,0.6356 0.3521,1.3445 0.3521,2.1266 0,0.9975 -0.2101,1.8139 -0.6308,2.4494 -0.4203,0.6355 -0.9532,1.1438 -1.5984,1.525 -0.6452,0.3813 -1.3541,0.6551 -2.1266,0.8215 -0.7724,0.1661 -1.5105,0.2787 -2.2144,0.3373 -0.9777,0.078 -1.8774,0.254 -2.6986,0.5279 -0.8212,0.2738 -1.5253,0.6307 -2.1118,1.0706 -0.5867,0.4399 -1.0462,0.9434 -1.3787,1.5106 -0.3323,0.5669 -0.4987,1.1829 -0.4987,1.8479 0,0.8212 0.2347,1.5446 0.7042,2.1705 0.4691,0.6256 1.0607,1.1438 1.7745,1.5545 0.7137,0.4107 1.4862,0.7237 2.3173,0.9386 0.8308,0.2151 1.5984,0.3228 2.3023,0.3228 0.5281,0 1.1001,-0.049 1.7161,-0.1468 0.6159,-0.0978 1.2268,-0.2492 1.8331,-0.4547 0.6061,-0.2052 1.1733,-0.4547 1.7011,-0.7478 0.5281,-0.2934 0.9584,-0.6454 1.2906,-1.0559 l 0.1469,-0.2055 -0.9681,-0.7038 c -0.4498,0.5082 -0.885,0.9385 -1.3053,1.2906 -0.4204,0.3518 -0.8555,0.6403 -1.3051,0.8651 -0.4499,0.2251 -0.9289,0.3912 -1.4375,0.4986 -0.5082,0.1077 -1.0655,0.1613 -1.6718,0.1613 -0.8799,0 -1.6719,-0.1222 -2.3757,-0.3665 -0.7042,-0.2443 -1.2955,-0.572 -1.7745,-0.9825 -0.4791,-0.4107 -0.8507,-0.885 -1.1146,-1.4227 -0.2642,-0.5377 -0.396,-1.1098 -0.396,-1.7158 0,-1.1928 0.4204,-2.2048 1.2611,-3.0359 0.8408,-0.8311 2.1804,-1.315 4.0184,-1.4519 z m 35.5365,-0.8507 c 0,-1.4272 -0.2494,-2.7669 -0.748,-4.0184 -0.4986,-1.2515 -1.1781,-2.3414 -2.0384,-3.2703 -0.8606,-0.9289 -1.8675,-1.6671 -3.0212,-2.2147 -1.1537,-0.5474 -2.3856,-0.8212 -3.6958,-0.8212 h -0.0295 c -1.3099,0 -2.5418,0.2738 -3.6955,0.8212 -1.1537,0.5476 -2.1657,1.2858 -3.0359,2.2147 -0.8702,0.9289 -1.5545,2.0188 -2.0531,3.2703 -0.4986,1.2515 -0.7481,2.5912 -0.7481,4.0184 0,1.2711 0.2004,2.4786 0.6012,3.6227 0.4009,1.1438 0.9581,2.1654 1.6719,3.0651 0.7138,0.8994 1.5548,1.6523 2.5226,2.2583 0.968,0.6064 2.0191,1.0072 3.1532,1.2028 0.5083,0.1173 1.0364,0.176 1.5837,0.176 1.3884,0 2.6643,-0.2885 3.8279,-0.8654 1.1634,-0.5768 2.1657,-1.3445 3.0065,-2.3026 0.8407,-0.9581 1.5009,-2.0579 1.98,-3.2998 0.479,-1.2416 0.7185,-2.5274 0.7185,-3.8571 z m -9.5329,-9.826 c 1.2515,0 2.376,0.2591 3.3733,0.7772 0.9972,0.5182 1.8479,1.2223 2.5517,2.1121 0.7041,0.8896 1.2419,1.931 1.6135,3.1238 0.3713,1.1928 0.5573,2.4639 0.5573,3.8129 0,1.3493 -0.186,2.6204 -0.5573,3.8132 -0.3716,1.1928 -0.9094,2.234 -1.6135,3.1237 -0.7038,0.8898 -1.5545,1.5937 -2.5517,2.1119 -0.9973,0.5181 -2.1218,0.7772 -3.3733,0.7772 -1.2515,0 -2.3757,-0.2591 -3.3729,-0.7772 -0.9972,-0.5182 -1.8479,-1.2221 -2.552,-2.1119 -0.7039,-0.8897 -1.2416,-1.9309 -1.6132,-3.1237 -0.3714,-1.1928 -0.5573,-2.4639 -0.5573,-3.8132 0,-1.349 0.1859,-2.6201 0.5573,-3.8129 0.3716,-1.1928 0.9093,-2.2342 1.6132,-3.1238 0.7041,-0.8898 1.5548,-1.5939 2.552,-2.1121 0.9972,-0.5181 2.1214,-0.7772 3.3729,-0.7772 z m 27.9689,8.2128 5.5434,-8.7114 h -1.6131 l -5.5435,8.7114 h -5.8663 v -8.7114 h -1.4374 v 20.4735 h 9.1221 c 0.8212,0 1.5889,-0.1565 2.3026,-0.4694 0.7138,-0.313 1.3346,-0.7334 1.8624,-1.2612 0.5281,-0.5281 0.9485,-1.1488 1.2614,-1.8626 0.313,-0.7138 0.4694,-1.4715 0.4694,-2.2731 0,-0.8215 -0.1564,-1.5888 -0.4694,-2.3026 -0.3129,-0.7138 -0.7333,-1.3345 -1.2614,-1.8626 -0.5278,-0.5279 -1.1486,-0.9482 -1.8624,-1.2612 -0.7137,-0.3129 -1.4814,-0.4694 -2.3026,-0.4694 z m -7.4795,0.4694 h 7.5087 c 0.7433,0 1.3981,0.1418 1.9653,0.4252 0.5672,0.2835 1.0462,0.6698 1.4371,1.1585 0.3912,0.489 0.6894,1.0659 0.8947,1.7309 0.2055,0.6647 0.3081,1.3685 0.3081,2.1118 0,0.7429 -0.1026,1.442 -0.3081,2.0971 -0.2053,0.655 -0.5035,1.2271 -0.8947,1.7158 -0.3909,0.4889 -0.8699,0.875 -1.4371,1.1588 -0.5672,0.2834 -1.222,0.4252 -1.9653,0.4252 h -7.5087 z m 31.8991,-0.4694 5.5435,-8.7114 h -1.6132 l -5.5435,8.7114 h -5.8663 v -8.7114 h -1.4374 v 20.4735 h 9.1222 c 0.8212,0 1.5888,-0.1565 2.3025,-0.4694 0.7138,-0.313 1.3346,-0.7334 1.8624,-1.2612 0.5281,-0.5281 0.9485,-1.1488 1.2614,-1.8626 0.313,-0.7138 0.4694,-1.4715 0.4694,-2.2731 0,-0.8215 -0.1564,-1.5888 -0.4694,-2.3026 -0.3129,-0.7138 -0.7333,-1.3345 -1.2614,-1.8626 -0.5278,-0.5279 -1.1486,-0.9482 -1.8624,-1.2612 -0.7137,-0.3129 -1.4813,-0.4694 -2.3025,-0.4694 z m -7.4795,0.4694 h 7.5087 c 0.7433,0 1.3981,0.1418 1.9653,0.4252 0.5672,0.2835 1.0463,0.6698 1.4372,1.1585 0.3911,0.489 0.6893,1.0659 0.8946,1.7309 0.2055,0.6647 0.3081,1.3685 0.3081,2.1118 0,0.7429 -0.1026,1.442 -0.3081,2.0971 -0.2053,0.655 -0.5035,1.2271 -0.8946,1.7158 -0.3909,0.4889 -0.87,0.875 -1.4372,1.1588 -0.5672,0.2834 -1.222,0.4252 -1.9653,0.4252 h -7.5087 z m 24.4197,10.8233 v -8.8288 h 8.6232 v -0.4692 h -8.6232 v -10.2075 h 9.7378 v -0.4986 H 338.434 v 20.4735 h 11.2927 v -0.4694 z m 33.6883,0.4694 v -20.4735 h -1.6132 l -12.7593,20.0627 v -20.0627 h -0.4694 v 20.4735 h 1.8479 l 12.5246,-19.7107 v 19.7107 z m 21.6037,0 v -0.4694 h -5.8663 v -20.0041 h -1.4375 v 20.0041 h -5.8663 v 0.4694 z m 9.8714,0 v -20.4735 h -1.4375 v 20.4735 z m 25.2408,0 v -20.4735 h -1.6132 l -12.7593,20.0627 v -20.0627 h -0.4694 v 20.4735 h 1.8479 l 12.5246,-19.7107 v 19.7107 z m 28.5846,-10.1489 c 0,-1.4272 -0.2495,-2.7669 -0.7481,-4.0184 -0.4986,-1.2515 -1.1781,-2.3414 -2.0384,-3.2703 -0.8606,-0.9289 -1.8675,-1.6671 -3.0212,-2.2147 -1.1537,-0.5474 -2.3856,-0.8212 -3.6958,-0.8212 h -0.0295 c -1.3099,0 -2.5418,0.2738 -3.6955,0.8212 -1.1537,0.5476 -2.1657,1.2858 -3.0359,2.2147 -0.8702,0.9289 -1.5545,2.0188 -2.0531,3.2703 -0.4986,1.2515 -0.7481,2.5912 -0.7481,4.0184 0,1.2711 0.2004,2.4786 0.6012,3.6227 0.4009,1.1438 0.9581,2.1654 1.6719,3.0651 0.7138,0.8994 1.5548,1.6523 2.5226,2.2583 0.968,0.6064 2.0191,1.0072 3.1532,1.2028 0.5083,0.1173 1.0364,0.176 1.5837,0.176 1.3884,0 2.6643,-0.2885 3.8279,-0.8654 1.1634,-0.5768 2.1657,-1.3445 3.0065,-2.3026 0.8407,-0.9581 1.5009,-2.0579 1.98,-3.2998 0.479,-1.2416 0.7186,-2.5274 0.7186,-3.8571 z m -9.533,-9.826 c 1.2515,0 2.376,0.2591 3.3733,0.7772 0.9972,0.5182 1.8479,1.2223 2.5517,2.1121 0.7041,0.8896 1.2419,1.931 1.6135,3.1238 0.3713,1.1928 0.5573,2.4639 0.5573,3.8129 0,1.3493 -0.186,2.6204 -0.5573,3.8132 -0.3716,1.1928 -0.9094,2.234 -1.6135,3.1237 -0.7038,0.8898 -1.5545,1.5937 -2.5517,2.1119 -0.9973,0.5181 -2.1218,0.7772 -3.3733,0.7772 -1.2515,0 -2.3757,-0.2591 -3.3729,-0.7772 -0.9972,-0.5182 -1.8479,-1.2221 -2.552,-2.1119 -0.7039,-0.8897 -1.2416,-1.9309 -1.6132,-3.1237 -0.3714,-1.1928 -0.5573,-2.4639 -0.5573,-3.8132 0,-1.349 0.1859,-2.6201 0.5573,-3.8129 0.3716,-1.1928 0.9093,-2.2342 1.6132,-3.1238 0.7041,-0.8898 1.5548,-1.5939 2.552,-2.1121 0.9972,-0.5181 2.1214,-0.7772 3.3729,-0.7772" />
    <path id="path16" style="fill:#1A1917;fill-opacity:1;fill-rule:evenodd;stroke:none" d="m 228.7715,923.6341 v -12.6858 h -0.8906 v 12.6858 z m 15.6402,0 v -12.6858 h -0.9995 l -7.9062,12.4316 v -12.4316 h -0.2908 v 12.6858 h 1.1449 l 7.7607,-12.2133 v 12.2133 z m 13.3866,0 v -0.2908 h -3.6352 v -12.395 h -0.8903 v 12.395 h -3.6352 v 0.2908 z m 6.1166,-0.2908 v -5.4706 h 5.3433 v -0.2908 h -5.3433 v -6.3247 h 6.0341 v -0.3089 h -6.9248 v 12.6858 h 6.9973 v -0.2908 z m 17.2031,-6.9973 3.4351,-5.3977 h -0.9998 l -3.435,5.3977 h -3.6349 v -5.3977 h -0.8906 v 12.6858 h 5.6522 c 0.5091,0 0.9845,-0.0969 1.427,-0.2908 0.4422,-0.1936 0.8269,-0.4541 1.154,-0.7815 0.3271,-0.3271 0.5876,-0.7118 0.7815,-1.154 0.1939,-0.4422 0.2908,-0.9119 0.2908,-1.4085 0,-0.5088 -0.0969,-0.9845 -0.2908,-1.4267 -0.1939,-0.4422 -0.4544,-0.8272 -0.7815,-1.1543 -0.3271,-0.3271 -0.7118,-0.5876 -1.154,-0.7815 -0.4425,-0.1939 -0.9179,-0.2908 -1.427,-0.2908 z m -4.6346,0.2908 h 4.6528 c 0.4603,0 0.8663,0.0879 1.2175,0.2636 0.3515,0.1758 0.6483,0.415 0.8906,0.7181 0.2424,0.3027 0.4272,0.6601 0.5545,1.072 0.1272,0.4122 0.1907,0.8484 0.1907,1.3088 0,0.4603 -0.0635,0.8935 -0.1907,1.2994 -0.1273,0.4059 -0.3121,0.7605 -0.5545,1.0633 -0.2423,0.303 -0.5391,0.5422 -0.8906,0.718 -0.3512,0.1757 -0.7572,0.2633 -1.2175,0.2633 h -4.6528 z m 15.1313,6.9973 v -12.6858 h -0.8906 v 12.6858 z m 17.712,-6.2883 c 0,-0.8847 -0.1542,-1.7147 -0.4631,-2.49 -0.309,-0.7755 -0.7302,-1.451 -1.2634,-2.0265 -0.533,-0.5757 -1.1571,-1.0329 -1.872,-1.3722 -0.7149,-0.3393 -1.4783,-0.5088 -2.2899,-0.5088 h -0.0184 c -0.8116,0 -1.5749,0.1695 -2.2898,0.5088 -0.7149,0.3393 -1.3419,0.7965 -1.8811,1.3722 -0.5394,0.5755 -0.9635,1.251 -1.2725,2.0265 -0.3089,0.7753 -0.4634,1.6053 -0.4634,2.49 0,0.7874 0.1244,1.5358 0.3727,2.2444 0.2483,0.709 0.5936,1.342 1.0361,1.8995 0.4422,0.5573 0.9632,1.0236 1.563,1.3995 0.5995,0.3756 1.2509,0.6239 1.9537,0.7449 0.3152,0.0729 0.6423,0.1092 0.9813,0.1092 0.8603,0 1.6509,-0.1786 2.372,-0.5361 0.7209,-0.3574 1.342,-0.8331 1.863,-1.4269 0.521,-0.5936 0.9297,-1.275 1.2268,-2.0446 0.2968,-0.7694 0.445,-1.5662 0.445,-2.3899 z m -5.9068,-6.0886 c 0.7756,0 1.4723,0.1605 2.0903,0.4816 0.6179,0.3209 1.1449,0.7572 1.5811,1.3085 0.4363,0.5513 0.7694,1.1965 0.9998,1.9358 0.2302,0.739 0.3453,1.5264 0.3453,2.3627 0,0.8359 -0.1151,1.6236 -0.3453,2.3626 -0.2304,0.739 -0.5635,1.3845 -0.9998,1.9358 -0.4362,0.5511 -0.9632,0.9873 -1.5811,1.3085 -0.618,0.3212 -1.3147,0.4816 -2.0903,0.4816 -0.7753,0 -1.472,-0.1604 -2.09,-0.4816 -0.6179,-0.3212 -1.1449,-0.7574 -1.5811,-1.3085 -0.4363,-0.5513 -0.7694,-1.1968 -0.9998,-1.9358 -0.2302,-0.739 -0.3453,-1.5267 -0.3453,-2.3626 0,-0.8363 0.1151,-1.6237 0.3453,-2.3627 0.2304,-0.7393 0.5635,-1.3845 0.9998,-1.9358 0.4362,-0.5513 0.9632,-0.9876 1.5811,-1.3085 0.618,-0.3211 1.3147,-0.4816 2.09,-0.4816 z m 17.3307,5.0888 3.4351,-5.3977 h -0.9998 l -3.435,5.3977 h -3.6349 v -5.3977 h -0.8906 v 12.6858 h 5.6522 c 0.5091,0 0.9845,-0.0969 1.427,-0.2908 0.4422,-0.1936 0.8269,-0.4541 1.154,-0.7815 0.3271,-0.3271 0.5876,-0.7118 0.7815,-1.154 0.1939,-0.4422 0.2908,-0.9119 0.2908,-1.4085 0,-0.5088 -0.0969,-0.9845 -0.2908,-1.4267 -0.1939,-0.4422 -0.4544,-0.8272 -0.7815,-1.1543 -0.3271,-0.3271 -0.7118,-0.5876 -1.154,-0.7815 -0.4425,-0.1939 -0.9179,-0.2908 -1.427,-0.2908 z m -4.6346,0.2908 h 4.6528 c 0.4603,0 0.8663,0.0879 1.2175,0.2636 0.3515,0.1758 0.6483,0.415 0.8906,0.7181 0.2424,0.3027 0.4272,0.6601 0.5545,1.072 0.1272,0.4122 0.1907,0.8484 0.1907,1.3088 0,0.4603 -0.0635,0.8935 -0.1907,1.2994 -0.1273,0.4059 -0.3121,0.7605 -0.5545,1.0633 -0.2423,0.303 -0.5391,0.5422 -0.8906,0.718 -0.3512,0.1757 -0.7572,0.2633 -1.2175,0.2633 h -4.6528 z m 17.9847,1.2359 c 1.5874,-0.121 2.808,-0.4816 3.6624,-1.0814 0.854,-0.5998 1.2812,-1.3963 1.2812,-2.3899 0,-1.0783 -0.415,-1.9173 -1.245,-2.5171 -0.8299,-0.5999 -1.978,-0.912 -3.4441,-0.936 h -0.1272 c -0.9451,0.0119 -1.8023,0.2029 -2.5719,0.5723 -0.7693,0.3696 -1.3842,0.8997 -1.8448,1.5905 l -0.0907,0.1088 0.618,0.4363 c 0.424,-0.7512 0.9572,-1.3388 1.5993,-1.7629 0.6423,-0.424 1.4176,-0.6361 2.3264,-0.6361 0.7027,0 1.2994,0.0726 1.7903,0.218 0.4907,0.1454 0.8904,0.3515 1.1994,0.618 0.3089,0.2664 0.5363,0.5967 0.6817,0.9904 0.1454,0.394 0.218,0.8331 0.218,1.3178 0,0.618 -0.1301,1.1237 -0.3906,1.5177 -0.2605,0.3937 -0.5908,0.7086 -0.9908,0.9451 -0.3996,0.2361 -0.839,0.4059 -1.3175,0.5088 -0.4788,0.1029 -0.936,0.1726 -1.3722,0.2089 -0.6058,0.0485 -1.1634,0.1576 -1.6722,0.3271 -0.5088,0.1698 -0.9451,0.3909 -1.3085,0.6636 -0.3637,0.2724 -0.6483,0.5845 -0.8543,0.936 -0.2058,0.3512 -0.309,0.733 -0.309,1.1449 0,0.5088 0.1454,0.9573 0.4362,1.3451 0.2909,0.3877 0.6574,0.7086 1.0996,0.9632 0.4422,0.2545 0.921,0.4484 1.4357,0.5816 0.5151,0.1333 0.9908,0.1999 1.427,0.1999 0.3271,0 0.6815,-0.0304 1.063,-0.091 0.3818,-0.0604 0.7605,-0.1545 1.1361,-0.2815 0.3756,-0.1273 0.7268,-0.2818 1.0542,-0.4635 0.3271,-0.1819 0.5936,-0.3999 0.7997,-0.6545 l 0.0907,-0.127 -0.5998,-0.4362 c -0.2787,0.3149 -0.5482,0.5816 -0.8087,0.7996 -0.2606,0.218 -0.5301,0.3969 -0.8088,0.5361 -0.2786,0.1394 -0.5754,0.2423 -0.8906,0.3089 -0.3149,0.0667 -0.6602,0.1001 -1.0358,0.1001 -0.5454,0 -1.0361,-0.0757 -1.4723,-0.2271 -0.4363,-0.1516 -0.8028,-0.3546 -1.0996,-0.6088 -0.2968,-0.2546 -0.5269,-0.5485 -0.6905,-0.8816 -0.1636,-0.3331 -0.2455,-0.6877 -0.2455,-1.0633 0,-0.739 0.2605,-1.366 0.7815,-1.8811 0.521,-0.515 1.351,-0.8149 2.49,-0.8997" />
    <path id="path20" style="fill:#000000;fill-opacity:1;fill-rule:evenodd;stroke:none" d="m 228.7715,671.036 v -12.6859 h -0.8906 v 12.6859 z m 15.6402,0 v -12.6859 h -0.9995 l -7.9062,12.4317 v -12.4317 h -0.2908 v 12.6859 h 1.1449 l 7.7607,-12.2133 v 12.2133 z m 13.3866,0 v -0.2908 h -3.6352 v -12.3951 h -0.8903 v 12.3951 h -3.6352 v 0.2908 z m 6.1166,-0.2908 v -5.4706 h 5.3433 v -0.2908 h -5.3433 v -6.3247 h 6.0341 v -0.309 h -6.9248 v 12.6859 h 6.9973 v -0.2908 z m 17.2031,-6.9973 3.4351,-5.3978 h -0.9998 l -3.435,5.3978 h -3.6349 v -5.3978 h -0.8906 v 12.6859 h 5.6522 c 0.5091,0 0.9845,-0.0969 1.427,-0.2908 0.4422,-0.1936 0.8269,-0.4541 1.154,-0.7815 0.3271,-0.3271 0.5876,-0.7118 0.7815,-1.154 0.1939,-0.4422 0.2908,-0.9119 0.2908,-1.4085 0,-0.5089 -0.0969,-0.9845 -0.2908,-1.4267 -0.1939,-0.4422 -0.4544,-0.8272 -0.7815,-1.1543 -0.3271,-0.3271 -0.7118,-0.5876 -1.154,-0.7815 -0.4425,-0.1939 -0.9179,-0.2908 -1.427,-0.2908 z m -4.6346,0.2908 h 4.6528 c 0.4603,0 0.8663,0.0879 1.2175,0.2636 0.3515,0.1758 0.6483,0.415 0.8906,0.718 0.2424,0.3028 0.4272,0.6602 0.5545,1.0721 0.1272,0.4122 0.1907,0.8484 0.1907,1.3088 0,0.4603 -0.0635,0.8934 -0.1907,1.2994 -0.1273,0.4059 -0.3121,0.7605 -0.5545,1.0632 -0.2423,0.3031 -0.5391,0.5423 -0.8906,0.7181 -0.3512,0.1757 -0.7572,0.2633 -1.2175,0.2633 h -4.6528 z m 15.1313,6.9973 v -12.6859 h -0.8906 v 12.6859 z m 17.712,-6.2883 c 0,-0.8847 -0.1542,-1.7147 -0.4631,-2.49 -0.309,-0.7756 -0.7302,-1.4511 -1.2634,-2.0265 -0.533,-0.5757 -1.1571,-1.0329 -1.872,-1.3722 -0.7149,-0.3393 -1.4783,-0.5089 -2.2899,-0.5089 h -0.0184 c -0.8116,0 -1.5749,0.1696 -2.2898,0.5089 -0.7149,0.3393 -1.3419,0.7965 -1.8811,1.3722 -0.5394,0.5754 -0.9635,1.2509 -1.2725,2.0265 -0.3089,0.7753 -0.4634,1.6053 -0.4634,2.49 0,0.7874 0.1244,1.5358 0.3727,2.2444 0.2483,0.709 0.5936,1.3419 1.0361,1.8995 0.4422,0.5573 0.9632,1.0236 1.563,1.3995 0.5995,0.3756 1.2509,0.6239 1.9537,0.7449 0.3152,0.0729 0.6423,0.1092 0.9813,0.1092 0.8603,0 1.6509,-0.1786 2.372,-0.5361 0.7209,-0.3574 1.342,-0.8331 1.863,-1.4269 0.521,-0.5936 0.9297,-1.2751 1.2268,-2.0447 0.2968,-0.7693 0.445,-1.5661 0.445,-2.3898 z m -5.9068,-6.0886 c 0.7756,0 1.4723,0.1605 2.0903,0.4816 0.6179,0.3209 1.1449,0.7572 1.5811,1.3085 0.4363,0.5513 0.7694,1.1965 0.9998,1.9358 0.2302,0.739 0.3453,1.5264 0.3453,2.3627 0,0.8359 -0.1151,1.6236 -0.3453,2.3626 -0.2304,0.739 -0.5635,1.3845 -0.9998,1.9358 -0.4362,0.5511 -0.9632,0.9873 -1.5811,1.3085 -0.618,0.3211 -1.3147,0.4816 -2.0903,0.4816 -0.7753,0 -1.472,-0.1605 -2.09,-0.4816 -0.6179,-0.3212 -1.1449,-0.7574 -1.5811,-1.3085 -0.4363,-0.5513 -0.7694,-1.1968 -0.9998,-1.9358 -0.2302,-0.739 -0.3453,-1.5267 -0.3453,-2.3626 0,-0.8363 0.1151,-1.6237 0.3453,-2.3627 0.2304,-0.7393 0.5635,-1.3845 0.9998,-1.9358 0.4362,-0.5513 0.9632,-0.9876 1.5811,-1.3085 0.618,-0.3211 1.3147,-0.4816 2.09,-0.4816 z m 17.3307,5.0888 3.4351,-5.3978 h -0.9998 l -3.435,5.3978 h -3.6349 v -5.3978 h -0.8906 v 12.6859 h 5.6522 c 0.5091,0 0.9845,-0.0969 1.427,-0.2908 0.4422,-0.1936 0.8269,-0.4541 1.154,-0.7815 0.3271,-0.3271 0.5876,-0.7118 0.7815,-1.154 0.1939,-0.4422 0.2908,-0.9119 0.2908,-1.4085 0,-0.5089 -0.0969,-0.9845 -0.2908,-1.4267 -0.1939,-0.4422 -0.4544,-0.8272 -0.7815,-1.1543 -0.3271,-0.3271 -0.7118,-0.5876 -1.154,-0.7815 -0.4425,-0.1939 -0.9179,-0.2908 -1.427,-0.2908 z m -4.6346,0.2908 h 4.6528 c 0.4603,0 0.8663,0.0879 1.2175,0.2636 0.3515,0.1758 0.6483,0.415 0.8906,0.718 0.2424,0.3028 0.4272,0.6602 0.5545,1.0721 0.1272,0.4122 0.1907,0.8484 0.1907,1.3088 0,0.4603 -0.0635,0.8934 -0.1907,1.2994 -0.1273,0.4059 -0.3121,0.7605 -0.5545,1.0632 -0.2423,0.3031 -0.5391,0.5423 -0.8906,0.7181 -0.3512,0.1757 -0.7572,0.2633 -1.2175,0.2633 h -4.6528 z m 17.9847,1.2359 c 1.5874,-0.121 2.808,-0.4816 3.6624,-1.0814 0.854,-0.5998 1.2812,-1.3963 1.2812,-2.3899 0,-1.0783 -0.415,-1.9173 -1.245,-2.5172 -0.8299,-0.5998 -1.978,-0.9119 -3.4441,-0.936 h -0.1272 c -0.9451,0.0119 -1.8023,0.203 -2.5719,0.5724 -0.7693,0.3696 -1.3842,0.8997 -1.8448,1.5905 l -0.0907,0.1088 0.618,0.4363 c 0.424,-0.7512 0.9572,-1.3388 1.5993,-1.7629 0.6423,-0.4241 1.4176,-0.6361 2.3264,-0.6361 0.7027,0 1.2994,0.0726 1.7903,0.218 0.4907,0.1454 0.8904,0.3515 1.1994,0.618 0.3089,0.2664 0.5363,0.5966 0.6817,0.9904 0.1454,0.394 0.218,0.8331 0.218,1.3178 0,0.618 -0.1301,1.1237 -0.3906,1.5177 -0.2605,0.3937 -0.5908,0.7086 -0.9908,0.945 -0.3996,0.2362 -0.839,0.406 -1.3175,0.5089 -0.4788,0.1029 -0.936,0.1726 -1.3722,0.2089 -0.6058,0.0485 -1.1634,0.1576 -1.6722,0.3271 -0.5088,0.1698 -0.9451,0.3909 -1.3085,0.6636 -0.3637,0.2724 -0.6483,0.5845 -0.8543,0.936 -0.2058,0.3512 -0.309,0.733 -0.309,1.1449 0,0.5088 0.1454,0.9573 0.4362,1.345 0.2909,0.3878 0.6574,0.7087 1.0996,0.9633 0.4422,0.2545 0.921,0.4484 1.4357,0.5816 0.5151,0.1333 0.9908,0.1999 1.427,0.1999 0.3271,0 0.6815,-0.0304 1.063,-0.091 0.3818,-0.0604 0.7605,-0.1545 1.1361,-0.2815 0.3756,-0.1273 0.7268,-0.2818 1.0542,-0.4635 0.3271,-0.182 0.5936,-0.3999 0.7997,-0.6545 l 0.0907,-0.127 -0.5998,-0.4362 c -0.2787,0.3149 -0.5482,0.5816 -0.8087,0.7996 -0.2606,0.218 -0.5301,0.3969 -0.8088,0.536 -0.2786,0.1395 -0.5754,0.2424 -0.8906,0.309 -0.3149,0.0666 -0.6602,0.1001 -1.0358,0.1001 -0.5454,0 -1.0361,-0.0757 -1.4723,-0.2271 -0.4363,-0.1516 -0.8028,-0.3546 -1.0996,-0.6088 -0.2968,-0.2546 -0.5269,-0.5486 -0.6905,-0.8816 -0.1636,-0.3331 -0.2455,-0.6877 -0.2455,-1.0633 0,-0.739 0.2605,-1.366 0.7815,-1.8811 0.521,-0.515 1.351,-0.8149 2.49,-0.8997" />
    <path id="path22" style="fill:#ffffff;fill-opacity:1;fill-rule:evenodd;stroke:none" d="m 125.0807,307.2963 v -7.333 l -0.176,-0.2931 c -0.9386,-1.1341 -2.0339,-2.0092 -3.2851,-2.6251 -1.2515,-0.616 -2.5716,-0.9241 -3.96,-0.9241 -1.3102,0 -2.5517,0.269 -3.725,0.8067 -1.1732,0.5377 -2.19,1.2711 -3.0503,2.1997 -0.8606,0.9289 -1.5449,2.0191 -2.0535,3.2706 -0.5082,1.2515 -0.7625,2.5812 -0.7625,3.9889 0,1.3298 0.22,2.5861 0.6599,3.7693 0.44,1.1829 1.0463,2.2291 1.8187,3.1385 0.7725,0.909 1.6815,1.6523 2.7278,2.2291 1.046,0.5769 2.1657,0.9338 3.3585,1.0707 0.1565,0.0391 0.3226,0.0587 0.4986,0.0587 0.176,0 0.3521,0 0.5278,0 0.1761,0 0.3473,0 0.5134,0 0.1664,0 0.3373,-0.0196 0.5133,-0.0587 1.1342,-0.1174 2.2048,-0.4451 3.212,-0.9828 1.0068,-0.5377 1.9114,-1.2563 2.713,-2.1557 l 0.1466,-0.1761 -1.0559,-0.9093 c -0.8212,1.2124 -1.7159,2.1509 -2.6839,2.8159 -0.9677,0.6647 -2.0874,0.9972 -3.3585,0.9972 -1.2515,0 -2.3805,-0.259 -3.3877,-0.7772 -1.0071,-0.5182 -1.8626,-1.2172 -2.5665,-2.0971 -0.7038,-0.8801 -1.2466,-1.9165 -1.6279,-3.1093 -0.3812,-1.1928 -0.572,-2.4639 -0.572,-3.8132 0,-1.349 0.1908,-2.6152 0.572,-3.7984 0.3813,-1.1829 0.9241,-2.2192 1.6279,-3.109 0.7039,-0.8898 1.5594,-1.5889 2.5665,-2.0971 1.0072,-0.5085 2.1362,-0.7628 3.3877,-0.7628 1.1146,0 2.1853,0.2103 3.212,0.6307 1.0267,0.4204 1.9505,1.0216 2.7717,1.804 v 7.7728 h -6.2181 v 0.4692 z m 11.2499,9.2982 V 296.121 h -1.4375 v 20.4735 z m 24.5954,0 v -13.2579 c 0,-0.9973 -0.1905,-1.931 -0.5721,-2.8012 -0.3812,-0.8703 -0.8994,-1.6328 -1.5545,-2.2879 -0.6551,-0.6551 -1.4224,-1.1732 -2.3026,-1.5545 -0.8799,-0.3813 -1.8184,-0.572 -2.8156,-0.572 -0.9973,0 -1.9358,0.1907 -2.816,0.572 -0.8798,0.3813 -1.6424,0.8994 -2.2878,1.5545 -0.6452,0.6551 -1.1585,1.4176 -1.5398,2.2879 -0.3813,0.8702 -0.572,1.8039 -0.572,2.8012 v 13.2579 h 1.4371 v -13.2579 c 0,-0.919 0.1273,-1.7893 0.3813,-2.6105 0.2543,-0.8214 0.6259,-1.5349 1.1149,-2.1412 0.4887,-0.6061 1.095,-1.0854 1.8184,-1.4372 0.7234,-0.3521 1.5449,-0.5281 2.4639,-0.5281 0.9385,0 1.7648,0.176 2.4786,0.5281 0.7135,0.3518 1.315,0.8311 1.8037,1.4372 0.4889,0.6063 0.8603,1.3198 1.1145,2.1412 0.2543,0.8212 0.3813,1.6915 0.3813,2.6105 v 13.2579 z m 22.0439,-19.9749 v -0.4986 h -11.9382 v 20.4735 h 1.4375 v -19.9749 z m 9.8713,19.9749 V 296.121 h -1.4374 v 20.4735 z M 218.698,296.121 h -0.5281 l -2.8451,7.4503 h -9.4153 l -2.9038,-7.4503 h -1.4374 l 7.9489,20.4735 h 1.3198 z m -3.5492,7.9489 -4.5171,11.7031 -4.5464,-11.7031 z m 29.3904,3.2264 c 2.5617,-0.1956 4.5318,-0.7773 5.9102,-1.7453 1.3788,-0.9678 2.0679,-2.2536 2.0679,-3.8571 0,-1.7402 -0.6695,-3.0943 -2.0092,-4.0623 -1.3393,-0.9681 -3.1921,-1.4715 -5.5581,-1.5106 h -0.2056 c -1.525,0.0195 -2.9086,0.3277 -4.1502,0.9241 -1.2418,0.5964 -2.2342,1.4519 -2.9772,2.5665 l -0.1465,0.176 0.9972,0.7038 c 0.6843,-1.2123 1.5449,-2.1608 2.5812,-2.8451 1.0364,-0.6846 2.2879,-1.0267 3.7542,-1.0267 1.1342,0 2.0974,0.1173 2.8894,0.3521 0.792,0.2347 1.4371,0.5669 1.9358,0.9972 0.4986,0.4303 0.8654,0.9632 1.0998,1.5984 0.2347,0.6356 0.3521,1.3445 0.3521,2.1266 0,0.9975 -0.2101,1.8139 -0.6308,2.4494 -0.4203,0.6355 -0.9532,1.1438 -1.5984,1.525 -0.6452,0.3813 -1.3541,0.6551 -2.1266,0.8215 -0.7724,0.1661 -1.5105,0.2787 -2.2144,0.3373 -0.9777,0.078 -1.8774,0.254 -2.6986,0.5279 -0.8212,0.2738 -1.5253,0.6307 -2.1118,1.0706 -0.5867,0.4399 -1.0462,0.9434 -1.3787,1.5106 -0.3323,0.5669 -0.4987,1.1829 -0.4987,1.8479 0,0.8212 0.2347,1.5446 0.7042,2.1705 0.4691,0.6256 1.0607,1.1438 1.7745,1.5545 0.7137,0.4107 1.4862,0.7237 2.3173,0.9386 0.8308,0.2151 1.5984,0.3228 2.3023,0.3228 0.5281,0 1.1001,-0.049 1.7161,-0.1468 0.6159,-0.0978 1.2268,-0.2492 1.8331,-0.4547 0.6061,-0.2052 1.1733,-0.4547 1.7011,-0.7478 0.5281,-0.2934 0.9584,-0.6454 1.2906,-1.0559 l 0.1469,-0.2055 -0.9681,-0.7038 c -0.4498,0.5082 -0.885,0.9385 -1.3053,1.2906 -0.4204,0.3518 -0.8555,0.6403 -1.3051,0.8651 -0.4499,0.2251 -0.9289,0.3912 -1.4375,0.4986 -0.5082,0.1077 -1.0655,0.1613 -1.6718,0.1613 -0.8799,0 -1.6719,-0.1222 -2.3757,-0.3665 -0.7042,-0.2443 -1.2955,-0.572 -1.7745,-0.9825 -0.4791,-0.4107 -0.8507,-0.885 -1.1146,-1.4227 -0.2642,-0.5377 -0.396,-1.1098 -0.396,-1.7158 0,-1.1928 0.4204,-2.2048 1.2611,-3.0359 0.8408,-0.8311 2.1804,-1.315 4.0184,-1.4519 z m 35.5365,-0.8507 c 0,-1.4272 -0.2494,-2.7669 -0.748,-4.0184 -0.4986,-1.2515 -1.1781,-2.3414 -2.0384,-3.2703 -0.8606,-0.9289 -1.8675,-1.6671 -3.0212,-2.2147 -1.1537,-0.5474 -2.3856,-0.8212 -3.6958,-0.8212 h -0.0295 c -1.3099,0 -2.5418,0.2738 -3.6955,0.8212 -1.1537,0.5476 -2.1657,1.2858 -3.0359,2.2147 -0.8702,0.9289 -1.5545,2.0188 -2.0531,3.2703 -0.4986,1.2515 -0.7481,2.5912 -0.7481,4.0184 0,1.2711 0.2004,2.4786 0.6012,3.6227 0.4009,1.1438 0.9581,2.1654 1.6719,3.0651 0.7138,0.8994 1.5548,1.6523 2.5226,2.2583 0.968,0.6064 2.0191,1.0072 3.1532,1.2028 0.5083,0.1173 1.0364,0.176 1.5837,0.176 1.3884,0 2.6643,-0.2885 3.8279,-0.8654 1.1634,-0.5768 2.1657,-1.3445 3.0065,-2.3026 0.8407,-0.9581 1.5009,-2.0579 1.98,-3.2998 0.479,-1.2416 0.7185,-2.5274 0.7185,-3.8571 z m -9.5329,-9.826 c 1.2515,0 2.376,0.2591 3.3733,0.7773 0.9972,0.5181 1.8479,1.2222 2.5517,2.112 0.7041,0.8896 1.2419,1.931 1.6135,3.1238 0.3713,1.1928 0.5573,2.4639 0.5573,3.8129 0,1.3493 -0.186,2.6204 -0.5573,3.8132 -0.3716,1.1928 -0.9094,2.234 -1.6135,3.1238 -0.7038,0.8897 -1.5545,1.5936 -2.5517,2.1118 -0.9973,0.5181 -2.1218,0.7772 -3.3733,0.7772 -1.2515,0 -2.3757,-0.2591 -3.3729,-0.7772 -0.9972,-0.5182 -1.8479,-1.2221 -2.552,-2.1118 -0.7039,-0.8898 -1.2416,-1.931 -1.6132,-3.1238 -0.3714,-1.1928 -0.5573,-2.4639 -0.5573,-3.8132 0,-1.349 0.1859,-2.6201 0.5573,-3.8129 0.3716,-1.1928 0.9093,-2.2342 1.6132,-3.1238 0.7041,-0.8898 1.5548,-1.5939 2.552,-2.112 0.9972,-0.5182 2.1214,-0.7773 3.3729,-0.7773 z m 27.9689,8.2128 5.5434,-8.7114 h -1.6131 l -5.5435,8.7114 h -5.8663 v -8.7114 h -1.4374 v 20.4735 h 9.1221 c 0.8212,0 1.5889,-0.1565 2.3026,-0.4694 0.7138,-0.313 1.3346,-0.7334 1.8624,-1.2612 0.5281,-0.5281 0.9485,-1.1488 1.2614,-1.8626 0.313,-0.7138 0.4694,-1.4715 0.4694,-2.2731 0,-0.8215 -0.1564,-1.5888 -0.4694,-2.3026 -0.3129,-0.7138 -0.7333,-1.3345 -1.2614,-1.8626 -0.5278,-0.5279 -1.1486,-0.9482 -1.8624,-1.2612 -0.7137,-0.3129 -1.4814,-0.4694 -2.3026,-0.4694 z m -7.4795,0.4694 h 7.5087 c 0.7433,0 1.3981,0.1418 1.9653,0.4252 0.5672,0.2835 1.0462,0.6699 1.4371,1.1585 0.3912,0.489 0.6894,1.0659 0.8947,1.7309 0.2055,0.6647 0.3081,1.3685 0.3081,2.1118 0,0.7429 -0.1026,1.442 -0.3081,2.0971 -0.2053,0.655 -0.5035,1.2271 -0.8947,1.7158 -0.3909,0.4889 -0.8699,0.875 -1.4371,1.1588 -0.5672,0.2834 -1.222,0.4252 -1.9653,0.4252 h -7.5087 z m 31.8991,-0.4694 5.5435,-8.7114 h -1.6132 l -5.5435,8.7114 h -5.8663 v -8.7114 h -1.4374 v 20.4735 h 9.1222 c 0.8212,0 1.5888,-0.1565 2.3025,-0.4694 0.7138,-0.313 1.3346,-0.7334 1.8624,-1.2612 0.5281,-0.5281 0.9485,-1.1488 1.2614,-1.8626 0.313,-0.7138 0.4694,-1.4715 0.4694,-2.2731 0,-0.8215 -0.1564,-1.5888 -0.4694,-2.3026 -0.3129,-0.7138 -0.7333,-1.3345 -1.2614,-1.8626 -0.5278,-0.5279 -1.1486,-0.9482 -1.8624,-1.2612 -0.7137,-0.3129 -1.4813,-0.4694 -2.3025,-0.4694 z m -7.4795,0.4694 h 7.5087 c 0.7433,0 1.3981,0.1418 1.9653,0.4252 0.5672,0.2835 1.0463,0.6699 1.4372,1.1585 0.3911,0.489 0.6893,1.0659 0.8946,1.7309 0.2055,0.6647 0.3081,1.3685 0.3081,2.1118 0,0.7429 -0.1026,1.442 -0.3081,2.0971 -0.2053,0.655 -0.5035,1.2271 -0.8946,1.7158 -0.3909,0.4889 -0.87,0.875 -1.4372,1.1588 -0.5672,0.2834 -1.222,0.4252 -1.9653,0.4252 h -7.5087 z m 24.4197,10.8233 v -8.8288 h 8.6232 v -0.4692 h -8.6232 v -10.2075 h 9.7378 V 296.121 H 338.434 v 20.4735 h 11.2927 v -0.4694 z m 33.6883,0.4694 V 296.121 h -1.6132 l -12.7593,20.0627 V 296.121 h -0.4694 v 20.4735 h 1.8479 l 12.5246,-19.7107 v 19.7107 z m 21.6037,0 v -0.4694 h -5.8663 V 296.121 h -1.4375 v 20.0041 h -5.8663 v 0.4694 z m 9.8714,0 V 296.121 h -1.4375 v 20.4735 z m 25.2408,0 V 296.121 h -1.6132 l -12.7593,20.0627 V 296.121 h -0.4694 v 20.4735 h 1.8479 l 12.5246,-19.7107 v 19.7107 z m 28.5846,-10.1489 c 0,-1.4272 -0.2495,-2.7669 -0.7481,-4.0184 -0.4986,-1.2515 -1.1781,-2.3414 -2.0384,-3.2703 -0.8606,-0.9289 -1.8675,-1.6671 -3.0212,-2.2147 -1.1537,-0.5474 -2.3856,-0.8212 -3.6958,-0.8212 h -0.0295 c -1.3099,0 -2.5418,0.2738 -3.6955,0.8212 -1.1537,0.5476 -2.1657,1.2858 -3.0359,2.2147 -0.8702,0.9289 -1.5545,2.0188 -2.0531,3.2703 -0.4986,1.2515 -0.7481,2.5912 -0.7481,4.0184 0,1.2711 0.2004,2.4786 0.6012,3.6227 0.4009,1.1438 0.9581,2.1654 1.6719,3.0651 0.7138,0.8994 1.5548,1.6523 2.5226,2.2583 0.968,0.6064 2.0191,1.0072 3.1532,1.2028 0.5083,0.1173 1.0364,0.176 1.5837,0.176 1.3884,0 2.6643,-0.2885 3.8279,-0.8654 1.1634,-0.5768 2.1657,-1.3445 3.0065,-2.3026 0.8407,-0.9581 1.5009,-2.0579 1.98,-3.2998 0.479,-1.2416 0.7186,-2.5274 0.7186,-3.8571 z m -9.533,-9.826 c 1.2515,0 2.376,0.2591 3.3733,0.7773 0.9972,0.5181 1.8479,1.2222 2.5517,2.112 0.7041,0.8896 1.2419,1.931 1.6135,3.1238 0.3713,1.1928 0.5573,2.4639 0.5573,3.8129 0,1.3493 -0.186,2.6204 -0.5573,3.8132 -0.3716,1.1928 -0.9094,2.234 -1.6135,3.1238 -0.7038,0.8897 -1.5545,1.5936 -2.5517,2.1118 -0.9973,0.5181 -2.1218,0.7772 -3.3733,0.7772 -1.2515,0 -2.3757,-0.2591 -3.3729,-0.7772 -0.9972,-0.5182 -1.8479,-1.2221 -2.552,-2.1118 -0.7039,-0.8898 -1.2416,-1.931 -1.6132,-3.1238 -0.3714,-1.1928 -0.5573,-2.4639 -0.5573,-3.8132 0,-1.349 0.1859,-2.6201 0.5573,-3.8129 0.3716,-1.1928 0.9093,-2.2342 1.6132,-3.1238 0.7041,-0.8898 1.5548,-1.5939 2.552,-2.112 0.9972,-0.5182 2.1214,-0.7773 3.3729,-0.7773" />
    <path id="path24" style="fill:#ffffff;fill-opacity:1;fill-rule:evenodd;stroke:none" d="m 228.7715,282.8375 v -12.6858 h -0.8906 v 12.6858 z m 15.6402,0 v -12.6858 h -0.9995 l -7.9062,12.4316 v -12.4316 h -0.2908 v 12.6858 h 1.1449 l 7.7607,-12.2133 v 12.2133 z m 13.3866,0 v -0.2908 h -3.6352 v -12.395 h -0.8903 v 12.395 h -3.6352 v 0.2908 z m 6.1166,-0.2908 v -5.4706 h 5.3433 v -0.2908 h -5.3433 v -6.3247 h 6.0341 v -0.3089 h -6.9248 v 12.6858 h 6.9973 v -0.2908 z m 17.2031,-6.9973 3.4351,-5.3977 h -0.9998 l -3.435,5.3977 h -3.6349 v -5.3977 h -0.8906 v 12.6858 h 5.6522 c 0.5091,0 0.9845,-0.0969 1.427,-0.2908 0.4422,-0.1936 0.8269,-0.4541 1.154,-0.7815 0.3271,-0.3271 0.5876,-0.7118 0.7815,-1.154 0.1939,-0.4422 0.2908,-0.9119 0.2908,-1.4085 0,-0.5088 -0.0969,-0.9845 -0.2908,-1.4267 -0.1939,-0.4422 -0.4544,-0.8271 -0.7815,-1.1543 -0.3271,-0.3271 -0.7118,-0.5876 -1.154,-0.7815 -0.4425,-0.1939 -0.9179,-0.2908 -1.427,-0.2908 z m -4.6346,0.2908 h 4.6528 c 0.4603,0 0.8663,0.0879 1.2175,0.2636 0.3515,0.1758 0.6483,0.415 0.8906,0.7181 0.2424,0.3027 0.4272,0.6601 0.5545,1.072 0.1272,0.4122 0.1907,0.8484 0.1907,1.3088 0,0.4603 -0.0635,0.8935 -0.1907,1.2994 -0.1273,0.4059 -0.3121,0.7605 -0.5545,1.0633 -0.2423,0.303 -0.5391,0.5422 -0.8906,0.718 -0.3512,0.1757 -0.7572,0.2633 -1.2175,0.2633 h -4.6528 z m 15.1313,6.9973 v -12.6858 h -0.8906 v 12.6858 z m 17.712,-6.2883 c 0,-0.8847 -0.1542,-1.7147 -0.4631,-2.49 -0.309,-0.7755 -0.7302,-1.451 -1.2634,-2.0265 -0.533,-0.5757 -1.1571,-1.0329 -1.872,-1.3722 -0.7149,-0.3393 -1.4783,-0.5088 -2.2899,-0.5088 h -0.0184 c -0.8116,0 -1.5749,0.1695 -2.2898,0.5088 -0.7149,0.3393 -1.3419,0.7965 -1.8811,1.3722 -0.5394,0.5755 -0.9635,1.251 -1.2725,2.0265 -0.3089,0.7753 -0.4634,1.6053 -0.4634,2.49 0,0.7874 0.1244,1.5358 0.3727,2.2444 0.2483,0.709 0.5936,1.342 1.0361,1.8995 0.4422,0.5573 0.9632,1.0236 1.563,1.3995 0.5995,0.3756 1.2509,0.6239 1.9537,0.7449 0.3152,0.0729 0.6423,0.1092 0.9813,0.1092 0.8603,0 1.6509,-0.1786 2.372,-0.5361 0.7209,-0.3574 1.342,-0.8331 1.863,-1.4269 0.521,-0.5936 0.9297,-1.275 1.2268,-2.0446 0.2968,-0.7694 0.445,-1.5662 0.445,-2.3899 z m -5.9068,-6.0886 c 0.7756,0 1.4723,0.1605 2.0903,0.4816 0.6179,0.3209 1.1449,0.7572 1.5811,1.3085 0.4363,0.5513 0.7694,1.1965 0.9998,1.9358 0.2302,0.739 0.3453,1.5264 0.3453,2.3627 0,0.8359 -0.1151,1.6237 -0.3453,2.3626 -0.2304,0.739 -0.5635,1.3845 -0.9998,1.9358 -0.4362,0.5511 -0.9632,0.9873 -1.5811,1.3085 -0.618,0.3212 -1.3147,0.4816 -2.0903,0.4816 -0.7753,0 -1.472,-0.1604 -2.09,-0.4816 -0.6179,-0.3212 -1.1449,-0.7574 -1.5811,-1.3085 -0.4363,-0.5513 -0.7694,-1.1968 -0.9998,-1.9358 -0.2302,-0.7389 -0.3453,-1.5267 -0.3453,-2.3626 0,-0.8363 0.1151,-1.6237 0.3453,-2.3627 0.2304,-0.7393 0.5635,-1.3845 0.9998,-1.9358 0.4362,-0.5513 0.9632,-0.9876 1.5811,-1.3085 0.618,-0.3211 1.3147,-0.4816 2.09,-0.4816 z m 17.3307,5.0888 3.4351,-5.3977 h -0.9998 l -3.435,5.3977 h -3.6349 v -5.3977 h -0.8906 v 12.6858 h 5.6522 c 0.5091,0 0.9845,-0.0969 1.427,-0.2908 0.4422,-0.1936 0.8269,-0.4541 1.154,-0.7815 0.3271,-0.3271 0.5876,-0.7118 0.7815,-1.154 0.1939,-0.4422 0.2908,-0.9119 0.2908,-1.4085 0,-0.5088 -0.0969,-0.9845 -0.2908,-1.4267 -0.1939,-0.4422 -0.4544,-0.8271 -0.7815,-1.1543 -0.3271,-0.3271 -0.7118,-0.5876 -1.154,-0.7815 -0.4425,-0.1939 -0.9179,-0.2908 -1.427,-0.2908 z m -4.6346,0.2908 h 4.6528 c 0.4603,0 0.8663,0.0879 1.2175,0.2636 0.3515,0.1758 0.6483,0.415 0.8906,0.7181 0.2424,0.3027 0.4272,0.6601 0.5545,1.072 0.1272,0.4122 0.1907,0.8484 0.1907,1.3088 0,0.4603 -0.0635,0.8935 -0.1907,1.2994 -0.1273,0.4059 -0.3121,0.7605 -0.5545,1.0633 -0.2423,0.303 -0.5391,0.5422 -0.8906,0.718 -0.3512,0.1757 -0.7572,0.2633 -1.2175,0.2633 h -4.6528 z m 17.9847,1.2359 c 1.5874,-0.121 2.808,-0.4816 3.6624,-1.0814 0.854,-0.5998 1.2812,-1.3963 1.2812,-2.3899 0,-1.0783 -0.415,-1.9173 -1.245,-2.5171 -0.8299,-0.5999 -1.978,-0.912 -3.4441,-0.936 h -0.1272 c -0.9451,0.0119 -1.8023,0.2029 -2.5719,0.5723 -0.7693,0.3696 -1.3842,0.8997 -1.8448,1.5905 l -0.0907,0.1088 0.618,0.4363 c 0.424,-0.7512 0.9572,-1.3388 1.5993,-1.7629 0.6423,-0.424 1.4176,-0.6361 2.3264,-0.6361 0.7027,0 1.2994,0.0726 1.7903,0.218 0.4907,0.1454 0.8904,0.3515 1.1994,0.618 0.3089,0.2664 0.5363,0.5967 0.6817,0.9904 0.1454,0.394 0.218,0.8331 0.218,1.3178 0,0.618 -0.1301,1.1237 -0.3906,1.5177 -0.2605,0.3937 -0.5908,0.7086 -0.9908,0.9451 -0.3996,0.2361 -0.839,0.4059 -1.3175,0.5088 -0.4788,0.1029 -0.936,0.1726 -1.3722,0.2089 -0.6058,0.0485 -1.1634,0.1576 -1.6722,0.3271 -0.5088,0.1698 -0.9451,0.3909 -1.3085,0.6636 -0.3637,0.2724 -0.6483,0.5845 -0.8543,0.936 -0.2058,0.3512 -0.309,0.733 -0.309,1.1449 0,0.5088 0.1454,0.9573 0.4362,1.3451 0.2909,0.3877 0.6574,0.7086 1.0996,0.9632 0.4422,0.2545 0.921,0.4484 1.4357,0.5816 0.5151,0.1333 0.9908,0.1999 1.427,0.1999 0.3271,0 0.6815,-0.0304 1.063,-0.091 0.3818,-0.0604 0.7605,-0.1545 1.1361,-0.2815 0.3756,-0.1273 0.7268,-0.2818 1.0542,-0.4635 0.3271,-0.1819 0.5936,-0.3999 0.7997,-0.6545 l 0.0907,-0.127 -0.5998,-0.4362 c -0.2787,0.3149 -0.5482,0.5816 -0.8087,0.7996 -0.2606,0.218 -0.5301,0.3969 -0.8088,0.5361 -0.2786,0.1394 -0.5754,0.2423 -0.8906,0.3089 -0.3149,0.0667 -0.6602,0.1001 -1.0358,0.1001 -0.5454,0 -1.0361,-0.0757 -1.4723,-0.2271 -0.4363,-0.1516 -0.8028,-0.3546 -1.0996,-0.6088 -0.2968,-0.2546 -0.5269,-0.5485 -0.6905,-0.8816 -0.1636,-0.3331 -0.2455,-0.6877 -0.2455,-1.0633 0,-0.739 0.2605,-1.366 0.7815,-1.8811 0.521,-0.515 1.351,-0.8149 2.49,-0.8997" />
  </g>
</svg>